<svg width="60" height="60" xmlns="http://www.w3.org/2000/svg"><g fill="#000" fill-rule="nonzero"><path d="M31 25a5 5 0 1 0 0-10 5 5 0 0 0 0 10zm0-8a3 3 0 1 1-3 3 3.009 3.009 0 0 1 3-3z"/><circle cx="31" cy="20" r="1"/><path d="M57.51 19.98c-11.07-.36-14.21-4.65-22.53-5.73a7 7 0 1 1-8.05.06c-9.27 1.42-15.72 7.22-24.83 7.66-.61.023-1.093.52-1.1 1.13v.12a1.136 1.136 0 0 0 1.45 1.09A9.517 9.517 0 0 1 5 24c5 0 13 7 25 7 .36 0 .71 0 1.06-.02a35.038 35.038 0 0 0 8.763-1.3 69.853 69.853 0 0 0-3.806 6.6C30.875 45.959 24.478 58 9 58H6.5a4.5 4.5 0 1 1 0-9 2.5 2.5 0 1 1-1.07 4.76 1 1 0 0 0-.86 1.806A4.5 4.5 0 1 0 6.5 47a6.5 6.5 0 1 0 0 13H9c16.679 0 23.675-13.165 28.782-22.778 2.038-3.834 3.82-7.164 5.74-8.81.5-.2 1-.407 1.478-.617V59s6-19 12-24c0 0-9 1-9-4 .039-1.834.51-3.634 1.374-5.252a24.191 24.191 0 0 1 8.216-2.678A1.552 1.552 0 0 0 59 21.53v-.01a1.537 1.537 0 0 0-1.49-1.54z"/><path d="M59 15c-2.76 0-5.63-1.215-8.953-2.621a52.479 52.479 0 0 0-11.954-3.855 4.528 4.528 0 0 1-1.764-3.311c.037-1.163.8-2.311 2.271-3.413A1 1 0 1 0 37.4.2c-1.979 1.485-3.012 3.149-3.07 4.948a5.4 5.4 0 0 0 .851 3A34.685 34.685 0 0 0 32 8c-1.1 0-2.14.056-3.145.134a4.556 4.556 0 0 1-1.976-3.21 3.845 3.845 0 0 1 1.746-3.143 1 1 0 0 0-1.25-1.562 5.713 5.713 0 0 0-2.494 4.8 5.864 5.864 0 0 0 1.4 3.4 40.199 40.199 0 0 0-2.985.539 5.821 5.821 0 0 1-4.156-2.219 5.018 5.018 0 0 1-.192-4.423 1.001 1.001 0 1 0-1.9-.632 6.894 6.894 0 0 0 .407 6.14A6.422 6.422 0 0 0 19.744 9.9c-1.218.368-2.395.758-3.56 1.146C11.635 12.568 7.338 14 1 14a1 1 0 0 0 0 2c6.662 0 11.315-1.551 15.816-3.051C21.365 11.432 25.662 10 32 10c7.3 0 12.593 2.242 17.268 4.221C52.791 15.712 55.834 17 59 17a1 1 0 0 0 0-2z"/></g></svg>