<svg width="60" height="60" xmlns="http://www.w3.org/2000/svg"><g fill="#000" fill-rule="nonzero"><path d="M5.543 22.394a12.036 12.036 0 0 1 6.809-2.371c-2.1-2.147-4.8-6.058-3.206-10.933A10.453 10.453 0 0 1 4.187-.037c-2.858 5.605-6.252 15.581 0 23.76.403-.49.858-.936 1.356-1.329zM16.167 20.393A12.6 12.6 0 0 1 23 24.772a12.679 12.679 0 0 1 10.265-4.745c.782-3.2-.48-7-1.732-9.707a35.4 35.4 0 0 0-2.047-3.792 8.645 8.645 0 0 1-6.243 5.442 8.3 8.3 0 0 0-.864.263c-4.503 1.575-5.824 5.802-6.212 8.16zM33.811 10.538c1.171 2.806 2.142 6.392 1.461 9.655a11.344 11.344 0 0 1 5.191 2.2c.496.392.948.836 1.349 1.325 6.264-8.188 2.869-18.158.007-23.759a10.817 10.817 0 0 1-1.367 5.42 12.029 12.029 0 0 1-6.641 5.159zM23 31.721l-3.819 5.346L23 43.941l3.819-6.874z"/><path d="M14.358 19.213a11.776 11.776 0 0 1 6.1-8.337 8.63 8.63 0 0 0-2.083-1.505 14.054 14.054 0 0 1-1.88-1.238 6 6 0 0 1-1.768-2.387 7.688 7.688 0 0 1-.354-1 13.7 13.7 0 0 0-3.083 4.3c-1.99 4.754 1.198 8.492 3.068 10.167zM38.979 39.24l.021-.026c3.176-5 3.888-9.989 1.9-13.334a6.865 6.865 0 0 0-1.676-1.913 9.713 9.713 0 0 0-5.289-1.93 10.748 10.748 0 0 0-10.09 4.99 1 1 0 0 1-1.689 0 10.561 10.561 0 0 0-7.276-4.871 11.38 11.38 0 0 0-1.9-.158 10.149 10.149 0 0 0-6.2 1.969 6.858 6.858 0 0 0-1.68 1.911C3.115 29.225 3.827 34.209 7 39.214c2.962 4.989 10.632 9.713 15 12.113V49a1 1 0 0 1 2 0v2.327c4.363-2.399 12.032-7.121 14.979-12.087zM40 31v1a1 1 0 0 1-2 0v-1a1 1 0 0 1 2 0zm-3.707-5.707a1 1 0 0 1 1.414 0l1 1a1 1 0 1 1-1.414 1.414l-1-1a1 1 0 0 1 0-1.414zm0 11l1-1a1 1 0 0 1 1.414 1.414l-1 1a1 1 0 0 1-1.414-1.414zm-.586 3a1 1 0 0 1 0 1.414l-1 1a1 1 0 0 1-1.414-1.414l1-1a1 1 0 0 1 1.414 0zM31 24h2a1 1 0 0 1 0 2h-2a1 1 0 0 1 0-2zM7.293 26.293l1-1a1 1 0 0 1 1.414 1.414l-1 1a1 1 0 0 1-1.414-1.414zM6 32v-1a1 1 0 0 1 2 0v1a1 1 0 0 1-2 0zm3.707 5.707a1 1 0 0 1-1.414 0l-1-1a1 1 0 0 1 1.414-1.414l1 1a1 1 0 0 1 0 1.414zm3 4a1 1 0 0 1-1.414 0l-1-1a1 1 0 0 1 1.414-1.414l1 1a1 1 0 0 1 0 1.414zM15 26h-2a1 1 0 0 1 0-2h2a1 1 0 0 1 0 2zm8 19.941a2 2 0 0 1-1.748-1.028l-3.819-6.874a2.01 2.01 0 0 1 .121-2.135l3.819-5.346a2 2 0 0 1 3.254 0l3.819 5.347c.447.629.494 1.458.121 2.133l-3.819 6.875A2 2 0 0 1 23 45.941z"/></g></svg>
