<svg width="60" height="60" xmlns="http://www.w3.org/2000/svg"><g fill="#000" fill-rule="nonzero"><ellipse cx="10" cy="18" rx="2" ry="1"/><path d="M22.488 35.4a20.966 20.966 0 0 0-.832-3.127c-.479-1.214-.983-1.5-1.417-1.679a5.532 5.532 0 0 0-2.712-.245 15.364 15.364 0 0 0-.089 1.8c.242.814.473 1.631.7 2.448.308 1.095.609 2.166.942 3.23l.042.136c.16.556.35 1.103.568 1.639.075.17.252.569 1.536.826.906.15 1.823.23 2.741.244l.223.011a18.242 18.242 0 0 1-1.318-3.562c-.136-.576-.26-1.151-.384-1.721zM5 26.33C5 23.9 7.636 22 11 22a6.441 6.441 0 0 1 5.412 2.459c.065-.014.129-.031.194-.043.042-.008.081-.02.122-.028.343-.06.69-.1 1.038-.121h.023c.371-.017.708-.222.894-.544a.939.939 0 0 0 0-.927l-.256-.481c-1.369-2.738-2.827-5.467-4.237-8.106l-1.69-3.188c-.433-.845-1.158-2.259-1.861-2.454a.5.5 0 0 0-.136-.02.934.934 0 0 0-.489.174l-2 1.249c-.234.146-.494.29-.762.437a4.759 4.759 0 0 0-1.685 1.25 6.785 6.785 0 0 0-.628 2.963c-.021.312-.042.623-.072.933a76.105 76.105 0 0 1-.249 2.156v.009l-.005.03a75.815 75.815 0 0 1-.417 2.857c-.116.7-.283 1.407-.445 2.093A13.391 13.391 0 0 0 3.2 27.1c.129.65.37 1.273.713 1.84.117.225.233.451.34.676.172.365.451.668.8.871l2.128 1.244c.308.177.656.27 1.011.269h3.249v-.021c0-.428.011-.877.04-1.335-.16.009-.317.026-.481.026-3.364 0-6-1.906-6-4.34zM10 15c2.243 0 4 1.317 4 3s-1.757 3-4 3c-2.243 0-4-1.317-4-3s1.757-3 4-3z"/><path d="M14.44 25.18A4.939 4.939 0 0 0 11 24c-2.131 0-4 1.089-4 2.33 0 1.107 1.643 2.34 4 2.34a6.56 6.56 0 0 0 .792-.051l.016-.058.034-.122c.075-.254.165-.504.269-.747l.052-.115c.112-.245.241-.482.388-.708.02-.031.043-.06.064-.091.16-.236.34-.457.538-.661.018-.019.038-.035.057-.053.225-.224.47-.427.733-.605.157-.104.33-.188.497-.279zM33.106 6.019l-1.422.473a1 1 0 0 0-.684.949v1.731c.001.265.106.519.293.707l5.36 5.359c.055.055.108.114.159.173l5.9 6.88 1.2 1.2a1 1 0 0 0 .951.263l4.854-1.213a1 1 0 0 0 .713-1.265l-.753-2.446A27.893 27.893 0 0 0 40.4 5.2l-1.939-1.55a1 1 0 0 0-1.138-.077l-.166.1c-.018.013-.038.022-.057.034l-3.4 2.037a3.036 3.036 0 0 1-.594.275zM1.3 15.747L.255 21.79a1 1 0 0 0 .421.985l.872.6c.083-.381.171-.76.259-1.136.05-.212.1-.416.143-.622v-.042l.676-4.07c.092-.716.178-1.434.248-2.149.025-.25.042-.5.059-.754l-1.008.375a.986.986 0 0 0-.625.77zM17.057 6.151A1 1 0 0 0 18.2 6.6l8.03-2.413a.99.99 0 0 0 .418-.249l1.544-1.544a2.9 2.9 0 0 1 .323-.28l.3-.229a1 1 0 0 0-.4-1.781L28 .02a.945.945 0 0 0-.2-.02h-6.554c-.083 0-.165.01-.246.03l-3.544.886a1.091 1.091 0 0 0-.2.076l-1.213.608a1 1 0 0 0-.447.447l-.21.421a.991.991 0 0 0-.066.187l-.011.032a.992.992 0 0 0 .113.743l1.635 2.721zM43.038 30.729l2.869 1.279c.12.02.244-.02.33-.107a3.737 3.737 0 0 0-.613-2.509.327.327 0 0 0-.2-.051.434.434 0 0 0-.223.055c-.063.036-.13.065-.2.087l-2.158.673a.223.223 0 0 0-.134.086l.24.418a.2.2 0 0 0 .089.069z"/><path d="M55.563 39.343l-.332-.645c-.05-.081-.131-.207-.222-.343l-3.63-4.53c-.16-.234-.259-.387-.358-.553l-1.765-3.536a1.9 1.9 0 0 1-.179-1.244l.785-3.927-4.521 1.135a3.017 3.017 0 0 1-2.849-.789l-1.145-1.144a3.257 3.257 0 0 1-.159-.173l-5.9-6.88-5.412-5.416A2.978 2.978 0 0 1 29 9.172V7.441A3 3 0 0 1 31.051 4.6l1.424-.475a1 1 0 0 0 .2-.092l1.374-.824-3.096-.889c-.207.46-.528.86-.932 1.163l-.306.231a.938.938 0 0 0-.106.091l-1.546 1.546A3 3 0 0 1 26.8 6.1l-8.027 2.408a3 3 0 0 1-3.435-1.33l-1.63-2.722a2.912 2.912 0 0 1-.25-.567c-.879.436-1.915.953-2.216 1.1.1.214.2.424.314.634.211.409.433.812.654 1.215l.331.6c.007.014.006.029.013.043.709.78 1.292 1.664 1.729 2.623l1.675 3.157c1.417 2.65 2.881 5.391 4.25 8.131l.244.457c.43.812.456 1.779.07 2.613a10.9 10.9 0 0 1 1.145.279c.246.066.511.163.774.262a8.532 8.532 0 0 1 4.8 5.056c.484 1.34.86 2.717 1.123 4.117.11.508.219 1.014.339 1.516a17.773 17.773 0 0 0 1.584 3.75l.214.419a7.83 7.83 0 0 1 .9 2.8v.01c.011.147 0 .287-.006.43.033.041.063.085.089.13l1.18 2.771c.324.735.16 1.593-.412 2.157l-.262.262.01 1.869 19.055 5.418a3.058 3.058 0 0 1-.038-.776c.008-.312.018-.623.013-.935a5.9 5.9 0 0 1 .508-3.1c.247-.334.533-.636.854-.9A3.472 3.472 0 0 1 52 48.333c.02-.56.198-1.102.512-1.566.08-.117.166-.221.251-.324a1.6 1.6 0 0 0 .132-.169 1.809 1.809 0 0 0-.351-.9 5.64 5.64 0 0 1-.453-.947c-.007-.022-.623-1.965.586-2.378l2.048-.683c.362-.12.661-.378.832-.719.206-.41.208-.892.006-1.304zm-14.707-9.861a2.183 2.183 0 0 1 1.389-1.236l2.067-.644a2.352 2.352 0 0 1 2.95.642 5.745 5.745 0 0 1 .963 3.846 2.026 2.026 0 0 1-.939 1.525 2.443 2.443 0 0 1-2.112.251l-2.949-1.309a2.183 2.183 0 0 1-1.045-.957l-.239-.45a1.956 1.956 0 0 1-.085-1.668zm10.2 11.6a11.485 11.485 0 0 0-1.52 2.268c-.624 1.345-.426 2.772-.195 4.424l.015.105c.035.246.087.486.139.724.135.53.208 1.075.217 1.622.012.373-.084.742-.275 1.062a1.81 1.81 0 0 1-1.643.772h-.184a10.945 10.945 0 0 1-3.36-.882c-.448-.172-.9-.346-1.36-.487a37.068 37.068 0 0 1-5.59-2.149l-.165-.081a5.852 5.852 0 0 1-2.868-2.322 9.655 9.655 0 0 1-.942-3.071l-.026-.143c-1.591-8.6-4.2-15.215-7.992-20.228a37.957 37.957 0 0 0-3.268-3.771 9.216 9.216 0 0 1-2.8-4.348 3.84 3.84 0 0 1 .088-2.185A4.572 4.572 0 0 1 23.114 9.6a4.733 4.733 0 0 1 3.9 1.126 13.109 13.109 0 0 1 1.753 2.231c.193.287.385.573.585.848a36.026 36.026 0 0 1 2.174 3.327 25.2 25.2 0 0 1 2.79 7.439 17.927 17.927 0 0 0 3.762 8.329 11.521 11.521 0 0 0 5.088 3.335c1.097.296 2.227.445 3.363.443 1.272.007 2.538.175 3.768.5a2.111 2.111 0 0 1 1.564 1.361c.15.93-.15 1.874-.809 2.547l.004-.004z"/><path d="M28.506 40.36a19.3 19.3 0 0 1-1.747-4.192c-.126-.522-.238-1.044-.351-1.567a24.707 24.707 0 0 0-1.03-3.808 6.508 6.508 0 0 0-3.644-3.916c-.2-.074-.4-.151-.622-.211a9.233 9.233 0 0 0-2.716-.42c-.255 0-.5.021-.748.044a7.53 7.53 0 0 0-.344.039 8.195 8.195 0 0 0-.544.1c-.094.021-.19.041-.281.066a5.622 5.622 0 0 0-.545.185c-.071.028-.145.05-.213.08-.232.1-.454.22-.665.359-1.494 1-1.616 3.025-1.616 5.369-.002.09.005.18.02.268.01.04.018.08.023.121.3.984.557 1.9.814 2.817.312 1.109.623 2.216.967 3.316l.056.177c.198.688.437 1.364.713 2.024a5.6 5.6 0 0 0 4.409 3.126c1.11.198 2.233.306 3.36.322.469.022.931.078 1.394.135.592.092 1.19.134 1.789.125a2.9 2.9 0 0 0 2.033-.787c.306-.363.445-.837.385-1.307a6.044 6.044 0 0 0-.69-2.063l-.207-.402zm-1.783 2.076a1 1 0 0 1-.94.419l-.251-.031.039-.793-.017.009-.1.774-.048-.005c-.454-.056-.966-.121-1.524-.144a19.923 19.923 0 0 1-3.05-.281c-2.062-.412-2.684-1.326-2.972-1.979a17.74 17.74 0 0 1-.642-1.831l-.049-.158c-.337-1.08-.644-2.17-.951-3.261-.247-.875-.488-1.73-.743-2.582a1 1 0 0 1-.042-.288c.006-2.178.2-2.871.5-3.283a.989.989 0 0 1 .264-.248 6.227 6.227 0 0 1 4.788-.019 4.4 4.4 0 0 1 2.529 2.8c.4 1.12.71 2.27.926 3.439.121.559.242 1.117.376 1.671a20.855 20.855 0 0 0 1.861 4.538l.115.227a1 1 0 0 1-.069 1.026zM46.438 38.679a14.6 14.6 0 0 1-3.884-.536 13.565 13.565 0 0 1-5.982-3.923 19.9 19.9 0 0 1-4.218-9.25 23.181 23.181 0 0 0-2.567-6.85 34.28 34.28 0 0 0-2.056-3.142c-.212-.293-.419-.6-.625-.906-.425-.683-.92-1.32-1.478-1.9a2.763 2.763 0 0 0-2.246-.587 2.627 2.627 0 0 0-2.178 1.5 1.934 1.934 0 0 0-.013 1.06 7.471 7.471 0 0 0 2.275 3.377 39.892 39.892 0 0 1 3.44 3.972c3.979 5.266 6.715 12.157 8.364 21.07l.026.144c.104.849.346 1.675.716 2.446a4.055 4.055 0 0 0 2.007 1.513l.168.082a35.2 35.2 0 0 0 5.282 2.031c.508.155 1 .343 1.494.533.87.39 1.795.643 2.742.751a6.178 6.178 0 0 0-.168-1.028 12.16 12.16 0 0 1-.166-.874l-.015-.1a9.422 9.422 0 0 1 .362-5.542 13.131 13.131 0 0 1 1.776-2.682 2.57 2.57 0 0 0 .421-.663 1.218 1.218 0 0 0-.2-.075 13.341 13.341 0 0 0-3.277-.421z"/></g></svg>
