<svg width="28" height="28" viewBox="0 0 28 28" fill="none" xmlns="http://www.w3.org/2000/svg">
<g clip-path="url(#clip0_6_28)">
<path d="M0.399954 26.171C0.0289541 26.571 0.0289541 27.199 0.399954 27.6C0.799954 28 1.42896 28 1.82996 27.6L25.234 4.22301V21.684C25.234 22.256 25.663 22.713 26.235 22.713C26.778 22.713 27.235 22.256 27.235 21.684V1.76501V1.73601V1.70801C27.235 1.59401 27.207 1.50801 27.177 1.42201V1.39401L27.149 1.36501V1.33601L27.121 1.30801V1.27901L27.093 1.25001V1.22201H27.064V1.19301H27.036V1.16501L27.008 1.13601V1.10701H26.979V1.07901L26.951 1.05101H26.923V1.02101H26.895L26.866 0.993015V0.965014H26.838H26.81V0.936015H26.782V0.907015H26.753H26.725V0.879014H26.697H26.669V0.851015H26.611L26.583 0.822015C26.497 0.794015 26.411 0.765015 26.325 0.765015H26.297H26.24H6.31596C5.77296 0.765015 5.31596 1.22201 5.31596 1.76501C5.31596 2.33601 5.77296 2.79401 6.31596 2.79401H23.805L0.399954 26.171Z" fill="#40445D"/>
</g>
<defs>
<clipPath id="clip0_6_28">
<rect width="28" height="28" fill="white"/>
</clipPath>
</defs>
</svg>
