<svg width="14" height="18" viewBox="0 0 14 18" fill="none" xmlns="http://www.w3.org/2000/svg">
<path d="M9.20728 1.90497C9.08517 1.90435 8.96778 1.95352 8.8807 2.0417C8.79363 2.12988 8.74393 2.24991 8.74244 2.37568C8.74224 2.43859 8.75413 2.5009 8.77743 2.55905C8.80072 2.61719 8.83497 2.67006 8.87818 2.7145C8.92139 2.75895 8.97272 2.79414 9.02921 2.81805C9.08569 2.84196 9.14621 2.85406 9.20728 2.85375H11.7973L0.541914 14.4308C0.456245 14.5199 0.408203 14.6403 0.408203 14.7656C0.408203 14.891 0.456245 15.0113 0.541914 15.1005C0.628764 15.1897 0.746513 15.2399 0.869284 15.2399C0.992056 15.2399 1.1098 15.1897 1.19665 15.1005L12.4448 3.53095V6.18937C12.4446 6.25212 12.4564 6.31432 12.4796 6.37235C12.5028 6.43037 12.5369 6.4831 12.5799 6.52753C12.6229 6.57195 12.674 6.60722 12.7303 6.63124C12.7866 6.65526 12.8469 6.66756 12.9078 6.66749C12.9689 6.6678 13.0294 6.65564 13.0859 6.63173C13.1424 6.60782 13.1937 6.57264 13.2369 6.52819C13.2802 6.48374 13.3144 6.43094 13.3377 6.37278C13.361 6.31463 13.3729 6.25227 13.3727 6.18937V2.40172C13.375 2.34372 13.367 2.28577 13.3491 2.23072C13.3412 2.20767 13.3315 2.18341 13.3202 2.16189L13.3148 2.15107C13.2944 2.11222 13.2688 2.07649 13.2388 2.04489L13.2352 2.04307C13.1486 1.95472 13.0316 1.90517 12.9096 1.90519L9.20728 1.90497Z" fill="black"/>
</svg>
